<mxfile host="" modified="2020-06-08T15:19:01.440Z" agent="5.0 (Macintosh; Intel Mac OS X 10_14_5) AppleWebKit/537.36 (KHTML, like Gecko) Code/1.45.0 Chrome/78.0.3904.130 Electron/7.2.4 Safari/537.36" etag="OskX8JO8oaxojye6JNSd" version="13.1.3">
    <diagram id="6hGFLwfOUW9BJ-s0fimq" name="Page-1">
        <mxGraphModel dx="1809" dy="972" grid="1" gridSize="10" guides="1" tooltips="1" connect="1" arrows="1" fold="1" page="1" pageScale="1" pageWidth="1169" pageHeight="827" math="0" shadow="0">
            <root>
                <mxCell id="0"/>
                <mxCell id="1" parent="0"/>
                <mxCell id="2" value="&lt;span style=&quot;font-size: 24px&quot;&gt;Vue源码流程&lt;/span&gt;" style="text;html=1;align=center;verticalAlign=middle;resizable=0;points=[];autosize=1;" vertex="1" parent="1">
                    <mxGeometry x="510" y="40" width="150" height="20" as="geometry"/>
                </mxCell>
                <mxCell id="3" style="edgeStyle=orthogonalEdgeStyle;rounded=0;orthogonalLoop=1;jettySize=auto;html=1;exitX=0.5;exitY=1;exitDx=0;exitDy=0;entryX=0.5;entryY=0;entryDx=0;entryDy=0;" edge="1" parent="1" source="4" target="6">
                    <mxGeometry relative="1" as="geometry"/>
                </mxCell>
                <mxCell id="4" value="entry" style="ellipse;whiteSpace=wrap;html=1;" vertex="1" parent="1">
                    <mxGeometry x="80" y="100" width="90" height="50" as="geometry"/>
                </mxCell>
                <mxCell id="5" style="edgeStyle=orthogonalEdgeStyle;rounded=0;orthogonalLoop=1;jettySize=auto;html=1;entryX=0.5;entryY=0;entryDx=0;entryDy=0;" edge="1" parent="1" source="6" target="12">
                    <mxGeometry relative="1" as="geometry"/>
                </mxCell>
                <mxCell id="6" value="注入runtime相关的实例方法" style="rounded=0;whiteSpace=wrap;html=1;" vertex="1" parent="1">
                    <mxGeometry x="40" y="207.5" width="170" height="42.5" as="geometry"/>
                </mxCell>
                <mxCell id="7" value="entry-runtime-with-compiler.js" style="text;html=1;align=center;verticalAlign=middle;resizable=0;points=[];autosize=1;" vertex="1" parent="1">
                    <mxGeometry x="235" y="115" width="170" height="20" as="geometry"/>
                </mxCell>
                <mxCell id="8" value="1、扩展$mount，把el/template转换成render函数" style="text;html=1;align=center;verticalAlign=middle;resizable=0;points=[];autosize=1;" vertex="1" parent="1">
                    <mxGeometry x="450" y="115" width="280" height="20" as="geometry"/>
                </mxCell>
                <mxCell id="9" value="runtime/index.js" style="text;html=1;align=center;verticalAlign=middle;resizable=0;points=[];autosize=1;" vertex="1" parent="1">
                    <mxGeometry x="270" y="218.75" width="100" height="20" as="geometry"/>
                </mxCell>
                <mxCell id="10" value="&lt;div style=&quot;text-align: left&quot;&gt;&lt;span&gt;1、web平台的工具函数&lt;/span&gt;&lt;/div&gt;&lt;div style=&quot;text-align: left&quot;&gt;&lt;span&gt;2、web平台的指令和组件&lt;/span&gt;&lt;/div&gt;&lt;div style=&quot;text-align: left&quot;&gt;&lt;span&gt;3、定义__path__方法，作用是初始化和更新&lt;br&gt;4、定义$mount方法，作用是挂载组件，把vdom=&amp;gt;dom&lt;/span&gt;&lt;/div&gt;" style="text;html=1;align=center;verticalAlign=middle;resizable=0;points=[];autosize=1;" vertex="1" parent="1">
                    <mxGeometry x="450" y="198.75" width="310" height="60" as="geometry"/>
                </mxCell>
                <mxCell id="11" style="edgeStyle=orthogonalEdgeStyle;rounded=0;orthogonalLoop=1;jettySize=auto;html=1;exitX=0.5;exitY=1;exitDx=0;exitDy=0;entryX=0.5;entryY=0;entryDx=0;entryDy=0;" edge="1" parent="1" source="12" target="15">
                    <mxGeometry relative="1" as="geometry"/>
                </mxCell>
                <mxCell id="12" value="注入全局API和服务器渲染的环境获取方法" style="rounded=0;whiteSpace=wrap;html=1;" vertex="1" parent="1">
                    <mxGeometry x="40.63" y="314" width="168.75" height="42" as="geometry"/>
                </mxCell>
                <mxCell id="13" value="core/index.js" style="text;html=1;align=center;verticalAlign=middle;resizable=0;points=[];autosize=1;" vertex="1" parent="1">
                    <mxGeometry x="280" y="330" width="80" height="20" as="geometry"/>
                </mxCell>
                <mxCell id="14" value="1、注入全局API：set、delete、nextTick、observable、&lt;span&gt;use、mixin、extend、initAssetRegisters(component/directive/filter)&lt;/span&gt;&lt;span&gt;&lt;br&gt;&lt;/span&gt;2、注入服务器环境的判断方法" style="text;html=1;align=left;verticalAlign=middle;resizable=0;points=[];autosize=1;" vertex="1" parent="1">
                    <mxGeometry x="460" y="326" width="670" height="30" as="geometry"/>
                </mxCell>
                <mxCell id="15" value="Vue的构造函数和相关核心功能的混入" style="rounded=0;whiteSpace=wrap;html=1;" vertex="1" parent="1">
                    <mxGeometry x="40" y="410" width="170" height="50" as="geometry"/>
                </mxCell>
                <mxCell id="16" value="core/instance/index.js" style="text;html=1;align=center;verticalAlign=middle;resizable=0;points=[];autosize=1;" vertex="1" parent="1">
                    <mxGeometry x="255" y="426" width="130" height="20" as="geometry"/>
                </mxCell>
                <mxCell id="17" style="edgeStyle=orthogonalEdgeStyle;rounded=0;orthogonalLoop=1;jettySize=auto;html=1;" edge="1" parent="1" source="18" target="19">
                    <mxGeometry relative="1" as="geometry"/>
                </mxCell>
                <mxCell id="18" value="1、声明构造函数&lt;br&gt;&lt;div&gt;&lt;span&gt;2、注入实例的相关方法和属性&lt;/span&gt;&lt;/div&gt;" style="text;html=1;align=left;verticalAlign=middle;resizable=0;points=[];autosize=1;" vertex="1" parent="1">
                    <mxGeometry x="460" y="420" width="180" height="30" as="geometry"/>
                </mxCell>
                <mxCell id="19" value="initMixin: 实现init函数&lt;br&gt;stateMixin：状态相关的api混入（$data,$props,$set,$delete,$watch）&lt;br&gt;eventMixin：事件相关的api混入（$on,$once,$off,$emit）&lt;br&gt;lifecycleMixin： 生命周期api（_update,$forceUpdate,$destroy）&lt;br&gt;destroyrenderMixin：混入渲染api（_render，$nextTick）" style="text;html=1;align=left;verticalAlign=middle;resizable=0;points=[];autosize=1;" vertex="1" parent="1">
                    <mxGeometry x="690" y="395" width="390" height="80" as="geometry"/>
                </mxCell>
            </root>
        </mxGraphModel>
    </diagram>
</mxfile>